<svg id="svg" version="1.1" width="500" height="500" xmlns="http://www.w3.org/2000/svg" xmlns:xlink="http://www.w3.org/1999/xlink" style="display: block;"><g id="svgg"><path id="path0" d="M148.800 1.600 C 148.800 2.489,149.333 3.200,150.000 3.200 C 150.667 3.200,151.200 2.489,151.200 1.600 C 151.200 0.711,150.667 0.000,150.000 0.000 C 149.333 0.000,148.800 0.711,148.800 1.600 M248.800 1.600 C 248.800 2.489,249.333 3.200,250.000 3.200 C 250.667 3.200,251.200 2.489,251.200 1.600 C 251.200 0.711,250.667 0.000,250.000 0.000 C 249.333 0.000,248.800 0.711,248.800 1.600 M129.076 4.435 C 128.382 6.243,129.005 6.338,130.600 4.667 C 131.785 3.426,131.811 3.200,130.775 3.200 C 130.101 3.200,129.337 3.756,129.076 4.435 M269.400 4.667 C 270.995 6.338,271.618 6.243,270.924 4.435 C 270.663 3.756,269.899 3.200,269.225 3.200 C 268.189 3.200,268.215 3.426,269.400 4.667 M114.679 11.648 C 112.528 13.799,112.648 15.386,114.824 13.580 C 116.240 12.405,117.908 9.600,117.192 9.600 C 116.936 9.600,115.805 10.522,114.679 11.648 M282.825 10.520 C 283.902 12.401,285.822 14.400,286.552 14.400 C 287.720 14.400,285.685 11.302,283.885 10.339 C 282.532 9.614,282.327 9.649,282.825 10.520 M103.837 15.318 C 102.647 15.753,101.444 16.832,101.164 17.715 C 100.428 20.034,100.875 19.916,103.874 17.000 C 105.345 15.570,106.425 14.428,106.274 14.463 C 106.123 14.498,105.026 14.882,103.837 15.318 M296.153 17.025 C 299.121 19.912,299.571 20.030,298.840 17.727 C 298.562 16.851,297.248 15.755,295.920 15.292 L 293.506 14.450 296.153 17.025 M67.800 38.464 C 67.030 38.913,66.423 40.072,66.451 41.040 L 66.501 42.800 67.232 40.981 C 67.634 39.981,68.781 38.834,69.781 38.432 C 70.782 38.030,71.060 37.690,70.400 37.675 C 69.740 37.661,68.570 38.016,67.800 38.464 M330.219 38.432 C 331.219 38.834,332.366 39.981,332.768 40.981 L 333.499 42.800 333.549 41.028 C 333.599 39.280,331.503 37.552,329.453 37.651 C 328.874 37.679,329.218 38.030,330.219 38.432 M60.319 45.237 C 60.038 46.358,60.031 47.498,60.304 47.771 C 60.577 48.043,60.800 47.559,60.800 46.693 C 60.800 45.828,61.232 44.688,61.760 44.160 C 62.489 43.431,62.493 43.200,61.775 43.200 C 61.256 43.200,60.600 44.117,60.319 45.237 M338.240 44.160 C 338.768 44.688,339.200 45.828,339.200 46.693 C 339.200 47.559,339.423 48.043,339.696 47.771 C 340.485 46.982,339.268 43.200,338.225 43.200 C 337.507 43.200,337.511 43.431,338.240 44.160 M44.200 60.530 C 43.650 60.752,43.200 61.307,43.200 61.765 C 43.200 62.329,43.521 62.336,44.200 61.784 C 44.750 61.338,45.920 60.795,46.800 60.579 L 48.400 60.186 46.800 60.156 C 45.920 60.140,44.750 60.308,44.200 60.530 M353.200 60.579 C 354.080 60.795,355.250 61.338,355.800 61.784 C 356.476 62.333,356.800 62.333,356.800 61.784 C 356.800 60.826,354.823 59.961,352.935 60.093 C 351.950 60.161,352.019 60.289,353.200 60.579 M38.857 67.657 C 38.166 68.349,37.608 69.519,37.618 70.257 C 37.633 71.382,37.860 71.325,39.018 69.904 C 39.778 68.972,41.120 67.812,42.000 67.329 C 43.565 66.468,43.562 66.448,41.857 66.424 C 40.899 66.411,39.549 66.966,38.857 67.657 M358.000 67.329 C 358.880 67.812,360.222 68.972,360.982 69.904 C 362.140 71.325,362.367 71.382,362.382 70.257 C 362.407 68.377,360.215 66.395,358.143 66.424 C 356.438 66.448,356.435 66.468,358.000 67.329 M380.000 101.951 C 380.000 103.115,382.178 105.136,384.209 105.857 C 385.512 106.319,385.530 106.185,384.441 104.080 C 383.212 101.702,380.000 100.162,380.000 101.951 M17.196 103.205 C 16.397 104.088,15.979 105.045,16.267 105.333 C 16.850 105.917,20.000 103.337,20.000 102.276 C 20.000 101.108,18.705 101.537,17.196 103.205 M12.111 116.027 L 10.223 117.600 12.311 117.600 C 13.867 117.600,14.400 117.191,14.400 116.000 C 14.400 114.071,14.460 114.070,12.111 116.027 M385.600 115.876 C 385.600 117.210,386.082 117.600,387.733 117.600 C 388.907 117.600,389.717 117.506,389.533 117.391 C 389.350 117.277,388.390 116.501,387.400 115.667 C 385.621 114.170,385.600 114.172,385.600 115.876 M3.984 130.019 C 3.427 130.690,3.203 131.470,3.486 131.753 C 3.769 132.035,4.000 131.835,4.000 131.308 C 4.000 130.780,4.810 130.023,5.800 129.625 C 7.018 129.135,7.179 128.885,6.298 128.851 C 5.582 128.823,4.541 129.349,3.984 130.019 M394.200 129.625 C 395.190 130.023,396.000 130.780,396.000 131.308 C 396.000 131.835,396.231 132.035,396.514 131.753 C 397.294 130.973,395.182 128.793,393.702 128.851 C 392.821 128.885,392.982 129.135,394.200 129.625 M0.000 147.600 C 0.000 148.267,0.711 148.800,1.600 148.800 C 2.489 148.800,3.200 148.267,3.200 147.600 C 3.200 146.933,2.489 146.400,1.600 146.400 C 0.711 146.400,0.000 146.933,0.000 147.600 M396.800 147.600 C 396.800 148.267,397.511 148.800,398.400 148.800 C 399.289 148.800,400.000 148.267,400.000 147.600 C 400.000 146.933,399.289 146.400,398.400 146.400 C 397.511 146.400,396.800 146.933,396.800 147.600 M0.000 252.400 C 0.000 253.067,0.711 253.600,1.600 253.600 C 2.489 253.600,3.200 253.067,3.200 252.400 C 3.200 251.733,2.489 251.200,1.600 251.200 C 0.711 251.200,0.000 251.733,0.000 252.400 M396.800 252.400 C 396.800 253.067,397.511 253.600,398.400 253.600 C 399.289 253.600,400.000 253.067,400.000 252.400 C 400.000 251.733,399.289 251.200,398.400 251.200 C 397.511 251.200,396.800 251.733,396.800 252.400 M3.224 268.502 C 3.189 269.822,5.381 271.418,6.573 270.939 C 7.234 270.673,7.116 270.504,6.240 270.463 C 5.492 270.428,4.513 269.770,4.064 269.000 C 3.616 268.230,3.238 268.006,3.224 268.502 M396.000 268.692 C 396.000 269.220,395.190 269.977,394.200 270.375 C 392.982 270.865,392.821 271.115,393.702 271.149 C 395.182 271.207,397.294 269.027,396.514 268.247 C 396.231 267.965,396.000 268.165,396.000 268.692 M10.467 282.609 C 10.650 282.723,11.610 283.499,12.600 284.333 C 14.379 285.830,14.400 285.828,14.400 284.124 C 14.400 282.790,13.918 282.400,12.267 282.400 C 11.093 282.400,10.283 282.494,10.467 282.609 M385.600 284.124 C 385.600 285.828,385.621 285.830,387.400 284.333 C 388.390 283.499,389.350 282.723,389.533 282.609 C 389.717 282.494,388.907 282.400,387.733 282.400 C 386.082 282.400,385.600 282.790,385.600 284.124 M384.000 294.168 C 382.152 294.847,380.000 296.935,380.000 298.049 C 380.000 299.846,383.214 298.293,384.453 295.898 C 385.106 294.634,385.542 293.628,385.421 293.663 C 385.299 293.698,384.660 293.925,384.000 294.168 M16.000 295.076 C 16.000 296.137,19.150 298.717,19.733 298.133 C 20.021 297.845,19.603 296.888,18.804 296.005 C 17.295 294.337,16.000 293.908,16.000 295.076 M37.651 329.453 C 37.552 331.503,39.280 333.599,41.028 333.549 L 42.800 333.499 40.981 332.768 C 39.981 332.366,38.834 331.219,38.432 330.219 C 38.030 329.218,37.679 328.874,37.651 329.453 M361.416 330.218 C 361.160 331.196,360.107 332.334,359.075 332.747 C 357.210 333.495,357.209 333.499,358.972 333.549 C 360.797 333.602,362.755 331.064,362.192 329.376 C 362.021 328.862,361.671 329.241,361.416 330.218 M43.200 338.225 C 43.200 339.268,46.982 340.485,47.771 339.696 C 48.043 339.423,47.559 339.200,46.693 339.200 C 45.828 339.200,44.688 338.768,44.160 338.240 C 43.431 337.511,43.200 337.507,43.200 338.225 M355.547 338.336 C 355.136 338.726,354.080 339.218,353.200 339.430 L 351.600 339.814 353.200 339.895 C 354.981 339.985,357.393 338.726,356.723 338.057 C 356.487 337.820,355.957 337.946,355.547 338.336 M60.093 352.935 C 59.961 354.823,60.826 356.800,61.784 356.800 C 62.333 356.800,62.333 356.476,61.784 355.800 C 61.338 355.250,60.795 354.080,60.579 353.200 C 60.289 352.019,60.161 351.950,60.093 352.935 M339.200 353.307 C 339.200 354.172,338.768 355.312,338.240 355.840 C 337.511 356.569,337.507 356.800,338.225 356.800 C 339.268 356.800,340.485 353.018,339.696 352.229 C 339.423 351.957,339.200 352.441,339.200 353.307 M66.451 358.972 C 66.401 360.720,68.497 362.448,70.547 362.349 C 71.126 362.321,70.782 361.970,69.781 361.568 C 68.781 361.166,67.634 360.019,67.232 359.019 L 66.501 357.200 66.451 358.972 M332.643 358.998 C 332.372 359.987,331.307 361.134,330.275 361.547 C 329.161 361.994,328.906 362.319,329.647 362.349 C 331.675 362.432,333.800 360.421,333.455 358.747 C 333.164 357.341,333.091 357.363,332.643 358.998 M100.812 380.847 C 100.832 382.710,101.875 383.843,104.416 384.763 L 106.800 385.626 104.851 384.097 C 103.778 383.256,102.428 381.921,101.851 381.131 C 101.070 380.064,100.803 379.991,100.812 380.847 M296.153 382.975 L 293.506 385.550 295.920 384.708 C 297.248 384.245,298.562 383.149,298.840 382.273 C 299.571 379.970,299.121 380.088,296.153 382.975 M113.590 387.182 C 114.056 388.052,115.192 389.167,116.115 389.661 C 117.468 390.386,117.673 390.351,117.175 389.480 C 115.265 386.144,111.870 383.967,113.590 387.182 M284.646 387.000 C 282.303 389.728,282.039 390.649,283.885 389.661 C 285.685 388.698,287.720 385.600,286.552 385.600 C 286.165 385.600,285.307 386.230,284.646 387.000 M128.800 394.825 C 128.800 395.499,129.356 396.263,130.035 396.524 C 131.843 397.218,131.938 396.595,130.267 395.000 C 129.026 393.815,128.800 393.789,128.800 394.825 M269.400 395.333 C 268.215 396.574,268.189 396.800,269.225 396.800 C 269.899 396.800,270.663 396.244,270.924 395.565 C 271.618 393.757,270.995 393.662,269.400 395.333 M148.800 398.400 C 148.800 399.289,149.333 400.000,150.000 400.000 C 150.667 400.000,151.200 399.289,151.200 398.400 C 151.200 397.511,150.667 396.800,150.000 396.800 C 149.333 396.800,148.800 397.511,148.800 398.400 M248.800 398.400 C 248.800 399.289,249.333 400.000,250.000 400.000 C 250.667 400.000,251.200 399.289,251.200 398.400 C 251.200 397.511,250.667 396.800,250.000 396.800 C 249.333 396.800,248.800 397.511,248.800 398.400 " stroke="none" fill="#000000" fill-rule="evenodd"></path><path id="path1" d="M152.000 1.518 C 152.000 2.913,151.186 3.058,141.935 3.318 C 131.519 3.610,128.753 4.639,129.957 7.777 C 130.251 8.542,129.060 8.800,125.240 8.800 C 118.887 8.800,117.600 9.278,117.600 11.638 C 117.600 14.064,117.175 14.270,111.737 14.490 C 108.252 14.631,102.866 16.800,106.000 16.800 C 106.328 16.800,106.195 17.283,105.705 17.874 C 105.215 18.464,104.984 19.117,105.192 19.325 C 105.399 19.533,103.866 19.783,101.785 19.881 C 96.282 20.139,95.188 20.660,94.667 23.264 C 94.389 24.654,93.673 25.625,92.900 25.661 C 92.185 25.695,90.880 25.901,90.000 26.119 C 89.120 26.337,87.746 26.510,86.946 26.503 C 86.139 26.497,84.794 27.675,83.923 29.150 C 82.910 30.868,81.533 31.973,80.033 32.273 C 78.229 32.634,77.655 33.234,77.456 34.969 C 77.244 36.818,76.770 37.242,74.688 37.444 C 72.978 37.610,71.242 38.697,69.255 40.844 C 66.473 43.851,65.600 44.338,63.460 44.074 C 62.944 44.010,62.258 44.383,61.937 44.902 C 61.547 45.532,61.727 45.653,62.476 45.264 C 63.094 44.944,62.906 45.244,62.058 45.932 C 61.211 46.620,60.793 47.457,61.130 47.792 C 61.468 48.126,60.362 48.792,58.672 49.272 C 56.344 49.932,55.577 50.575,55.507 51.925 C 55.388 54.189,54.189 55.388,51.925 55.507 C 50.575 55.577,49.932 56.344,49.272 58.672 C 48.792 60.362,48.126 61.468,47.792 61.130 C 47.457 60.793,46.620 61.211,45.932 62.058 C 45.244 62.906,44.944 63.094,45.264 62.476 C 45.653 61.727,45.532 61.547,44.902 61.937 C 44.383 62.258,44.038 62.944,44.136 63.460 C 44.463 65.186,43.109 67.992,41.546 68.829 C 40.696 69.284,40.000 70.205,40.000 70.875 C 40.000 71.546,39.651 71.878,39.223 71.614 C 38.796 71.351,38.226 72.139,37.957 73.367 C 37.089 77.320,36.883 77.600,34.840 77.600 C 33.309 77.600,32.705 78.124,32.302 79.800 C 31.834 81.751,28.800 85.678,28.800 84.333 C 28.800 84.042,28.284 84.232,27.654 84.755 C 27.023 85.279,26.509 86.313,26.511 87.053 C 26.514 87.794,26.337 89.120,26.119 90.000 C 25.901 90.880,25.695 92.230,25.661 93.000 C 25.625 93.828,24.970 94.400,24.057 94.400 C 21.301 94.400,20.000 96.598,20.000 101.257 C 20.000 103.646,19.640 105.645,19.200 105.700 C 18.074 105.841,17.403 106.049,15.800 106.755 C 14.677 107.249,14.400 108.383,14.400 112.486 C 14.400 117.593,14.397 117.600,12.086 117.600 C 9.274 117.600,8.800 118.648,8.800 124.865 C 8.800 128.298,8.504 129.600,7.724 129.600 C 4.517 129.600,3.346 133.220,3.259 143.400 C 3.205 149.847,3.074 150.400,1.600 150.400 C 0.017 150.400,0.000 150.933,0.000 200.000 C 0.000 249.067,0.017 249.600,1.600 249.600 C 3.074 249.600,3.205 250.153,3.259 256.600 C 3.346 266.780,4.517 270.400,7.724 270.400 C 8.504 270.400,8.800 271.702,8.800 275.135 C 8.800 281.352,9.274 282.400,12.086 282.400 C 14.397 282.400,14.400 282.407,14.400 287.514 C 14.400 292.712,14.776 293.347,18.273 294.061 C 19.883 294.390,19.948 294.564,20.105 299.002 C 20.277 303.857,20.703 304.719,23.167 305.194 C 25.519 305.647,26.552 308.079,26.505 313.054 C 26.497 313.872,27.696 315.219,29.246 316.133 C 31.154 317.259,32.000 318.341,32.000 319.656 C 32.000 321.127,32.585 321.705,34.600 322.223 C 36.740 322.774,37.243 323.329,37.444 325.358 C 37.608 327.012,38.728 328.787,40.844 330.745 C 43.851 333.527,44.338 334.400,44.074 336.540 C 44.010 337.056,44.383 337.742,44.902 338.063 C 45.532 338.453,45.653 338.273,45.264 337.524 C 44.944 336.906,45.244 337.094,45.932 337.942 C 46.620 338.789,47.457 339.207,47.792 338.870 C 48.126 338.532,48.792 339.638,49.272 341.328 C 49.932 343.656,50.575 344.423,51.925 344.493 C 54.203 344.613,55.389 345.814,55.507 348.121 C 55.578 349.524,56.308 350.148,58.640 350.802 C 60.311 351.271,61.418 351.916,61.098 352.235 C 60.778 352.555,61.211 353.380,62.058 354.068 C 62.906 354.756,63.094 355.056,62.476 354.736 C 61.727 354.347,61.547 354.468,61.937 355.098 C 62.258 355.617,62.944 355.990,63.460 355.926 C 65.600 355.662,66.473 356.149,69.255 359.156 C 71.242 361.303,72.978 362.390,74.688 362.556 C 76.770 362.758,77.244 363.182,77.456 365.031 C 77.659 366.799,78.223 367.365,80.172 367.754 C 81.920 368.104,82.884 368.915,83.503 370.555 C 83.983 371.825,85.100 373.031,85.987 373.237 C 88.349 373.783,91.414 374.273,92.900 374.341 C 93.674 374.376,94.389 375.345,94.667 376.736 C 95.188 379.340,96.282 379.861,101.785 380.119 C 103.866 380.217,105.399 380.467,105.192 380.675 C 104.984 380.883,105.215 381.536,105.705 382.126 C 106.195 382.717,106.328 383.200,106.000 383.200 C 102.831 383.200,108.263 385.368,111.784 385.509 C 116.929 385.713,117.350 385.946,117.732 388.800 C 117.986 390.699,118.293 390.812,123.800 391.035 C 128.806 391.238,129.600 391.471,129.600 392.737 C 129.600 395.686,131.829 396.388,142.122 396.682 C 151.189 396.941,152.000 397.089,152.000 398.482 C 152.000 399.956,153.401 400.000,200.000 400.000 C 246.599 400.000,248.000 399.956,248.000 398.482 C 248.000 397.089,248.811 396.941,257.878 396.682 C 268.171 396.388,270.400 395.686,270.400 392.737 C 270.400 391.471,271.194 391.238,276.200 391.035 C 281.707 390.812,282.014 390.699,282.268 388.800 C 282.650 385.946,283.071 385.713,288.216 385.509 C 291.737 385.368,297.169 383.200,294.000 383.200 C 293.672 383.200,293.805 382.717,294.295 382.126 C 294.785 381.536,295.022 380.889,294.821 380.688 C 294.621 380.487,295.614 380.237,297.028 380.132 C 304.541 379.572,304.677 379.516,305.200 376.800 C 305.649 374.468,305.410 374.619,309.600 374.028 C 315.045 373.259,315.578 372.989,316.508 370.525 C 317.116 368.915,318.090 368.102,319.828 367.754 C 321.777 367.365,322.341 366.799,322.544 365.031 C 322.756 363.182,323.230 362.758,325.312 362.556 C 327.022 362.390,328.758 361.303,330.745 359.156 C 333.527 356.149,334.400 355.662,336.540 355.926 C 337.056 355.990,337.742 355.617,338.063 355.098 C 338.453 354.468,338.273 354.347,337.524 354.736 C 336.906 355.056,337.094 354.756,337.942 354.068 C 338.789 353.380,339.222 352.555,338.902 352.235 C 338.582 351.916,339.667 351.277,341.313 350.815 C 343.726 350.138,344.434 349.475,344.975 347.388 C 345.344 345.964,346.085 344.758,346.623 344.708 C 347.160 344.657,348.107 344.567,348.726 344.508 C 349.345 344.448,350.245 343.018,350.726 341.328 C 351.207 339.638,351.874 338.532,352.208 338.870 C 352.543 339.207,353.380 338.789,354.068 337.942 C 354.756 337.094,355.056 336.906,354.736 337.524 C 354.347 338.273,354.468 338.453,355.098 338.063 C 355.617 337.742,355.990 337.056,355.926 336.540 C 355.662 334.400,356.149 333.527,359.156 330.745 C 361.272 328.787,362.392 327.012,362.556 325.358 C 362.757 323.329,363.260 322.774,365.400 322.223 C 367.481 321.688,368.000 321.146,368.000 319.508 C 368.000 317.968,368.595 317.236,370.402 316.554 C 372.992 315.577,373.256 315.071,374.028 309.600 C 374.620 305.405,374.464 305.650,376.833 305.194 C 379.252 304.728,379.716 303.858,379.882 299.468 C 380.041 295.267,380.421 294.400,382.104 294.400 C 384.535 294.400,385.600 292.223,385.600 287.257 C 385.600 282.434,385.616 282.400,387.914 282.400 C 390.726 282.400,391.200 281.352,391.200 275.135 C 391.200 271.702,391.496 270.400,392.276 270.400 C 395.483 270.400,396.654 266.780,396.741 256.600 C 396.795 250.153,396.926 249.600,398.400 249.600 C 399.983 249.600,400.000 249.067,400.000 200.000 C 400.000 150.933,399.983 150.400,398.400 150.400 C 396.926 150.400,396.795 149.847,396.741 143.400 C 396.654 133.220,395.483 129.600,392.276 129.600 C 391.496 129.600,391.200 128.298,391.200 124.865 C 391.200 118.648,390.726 117.600,387.914 117.600 C 385.616 117.600,385.600 117.566,385.600 112.743 C 385.600 107.777,384.535 105.600,382.104 105.600 C 380.421 105.600,380.041 104.733,379.882 100.532 C 379.716 96.142,379.252 95.272,376.833 94.806 C 374.464 94.350,374.620 94.595,374.028 90.400 C 373.259 84.955,372.989 84.422,370.525 83.492 C 368.915 82.884,368.102 81.910,367.754 80.172 C 367.365 78.223,366.799 77.659,365.031 77.456 C 363.164 77.242,362.731 76.744,362.374 74.400 C 362.130 72.790,361.535 71.685,360.974 71.800 C 360.438 71.910,360.000 71.473,360.000 70.828 C 360.000 70.184,359.304 69.284,358.454 68.829 C 356.891 67.992,355.537 65.186,355.864 63.460 C 355.962 62.944,355.617 62.258,355.098 61.937 C 354.468 61.547,354.347 61.727,354.736 62.476 C 355.056 63.094,354.756 62.906,354.068 62.058 C 353.380 61.211,352.543 60.793,352.208 61.130 C 351.874 61.468,351.208 60.362,350.728 58.672 C 350.068 56.344,349.425 55.577,348.075 55.507 C 345.797 55.387,344.611 54.186,344.493 51.879 C 344.422 50.476,343.692 49.852,341.360 49.198 C 339.689 48.729,338.582 48.084,338.902 47.765 C 339.222 47.445,338.789 46.620,337.942 45.932 C 337.094 45.244,336.906 44.944,337.524 45.264 C 338.273 45.653,338.453 45.532,338.063 44.902 C 337.742 44.383,337.056 44.010,336.540 44.074 C 334.400 44.338,333.527 43.851,330.745 40.844 C 328.758 38.697,327.022 37.610,325.312 37.444 C 323.230 37.242,322.756 36.818,322.544 34.969 C 322.345 33.234,321.771 32.634,319.967 32.273 C 318.467 31.973,317.090 30.868,316.077 29.150 C 315.206 27.675,313.861 26.497,313.054 26.503 C 312.254 26.510,310.880 26.337,310.000 26.119 C 309.120 25.901,307.815 25.695,307.100 25.661 C 306.327 25.625,305.611 24.654,305.333 23.264 C 304.812 20.660,303.718 20.139,298.215 19.881 C 296.134 19.783,294.601 19.533,294.808 19.325 C 295.016 19.117,294.785 18.464,294.295 17.874 C 293.805 17.283,293.672 16.800,294.000 16.800 C 297.169 16.800,291.737 14.632,288.216 14.491 C 283.071 14.287,282.650 14.054,282.268 11.200 C 282.014 9.301,281.707 9.188,276.200 8.965 C 271.194 8.762,270.400 8.529,270.400 7.263 C 270.400 4.314,268.171 3.612,257.878 3.318 C 248.811 3.059,248.000 2.911,248.000 1.518 C 248.000 0.044,246.599 0.000,200.000 0.000 C 153.401 0.000,152.000 0.044,152.000 1.518 M220.636 27.157 C 232.211 27.768,234.138 28.075,237.836 29.897 C 240.252 31.087,244.638 32.297,248.282 32.778 C 254.956 33.658,255.498 33.841,258.000 36.052 C 258.880 36.829,261.741 37.857,264.358 38.335 C 267.412 38.893,269.848 39.895,271.158 41.133 C 272.281 42.193,274.820 43.484,276.800 44.000 C 278.780 44.516,281.300 45.760,282.400 46.764 C 283.500 47.769,286.098 49.222,288.172 49.993 C 290.247 50.765,292.505 52.252,293.191 53.298 C 293.876 54.344,295.148 55.200,296.016 55.200 C 296.885 55.200,298.946 56.411,300.598 57.891 C 302.249 59.371,304.717 61.153,306.081 61.850 C 307.446 62.548,309.164 64.037,309.900 65.159 C 310.635 66.282,311.781 67.200,312.445 67.200 C 313.110 67.200,314.377 68.425,315.260 69.921 C 316.143 71.418,317.689 72.850,318.696 73.102 C 319.702 73.355,320.942 74.476,321.451 75.593 C 321.960 76.710,323.290 78.040,324.407 78.549 C 325.524 79.058,326.648 80.312,326.905 81.335 C 327.162 82.358,328.320 83.650,329.479 84.205 C 330.637 84.760,332.057 86.198,332.633 87.401 C 333.210 88.603,334.379 89.961,335.232 90.417 C 336.085 90.874,337.376 92.407,338.101 93.824 C 338.825 95.241,340.629 97.751,342.109 99.402 C 343.589 101.054,344.800 103.115,344.800 103.984 C 344.800 104.852,345.656 106.124,346.702 106.809 C 347.748 107.495,349.201 109.619,349.931 111.530 C 350.660 113.441,351.973 115.652,352.847 116.443 C 353.722 117.234,354.981 119.754,355.647 122.042 C 356.312 124.331,357.550 126.831,358.398 127.598 C 360.078 129.119,361.203 132.156,362.002 137.329 C 362.285 139.160,363.212 141.287,364.062 142.056 C 365.795 143.624,366.803 146.993,367.592 153.849 C 367.887 156.406,369.037 160.252,370.150 162.396 C 374.601 170.976,374.579 228.753,370.121 237.800 C 368.904 240.270,367.705 244.621,367.211 248.363 C 366.425 254.314,364.833 258.400,363.300 258.400 C 362.935 258.400,362.240 260.793,361.755 263.717 C 361.144 267.405,360.277 269.673,358.926 271.117 C 357.854 272.263,356.406 275.207,355.707 277.659 C 355.009 280.112,353.751 282.739,352.912 283.498 C 352.074 284.257,350.787 286.452,350.052 288.374 C 349.318 290.297,347.836 292.448,346.759 293.154 C 345.681 293.859,344.800 295.148,344.800 296.016 C 344.800 296.885,343.589 298.946,342.109 300.598 C 340.629 302.249,338.825 304.759,338.101 306.176 C 337.376 307.593,336.085 309.126,335.232 309.583 C 334.379 310.039,333.211 311.400,332.637 312.606 C 332.063 313.813,330.795 315.151,329.819 315.580 C 328.843 316.009,327.651 317.312,327.168 318.476 C 326.686 319.640,325.411 320.994,324.334 321.484 C 323.257 321.975,321.975 323.257,321.484 324.334 C 320.994 325.411,319.640 326.686,318.476 327.168 C 317.312 327.651,316.009 328.843,315.580 329.819 C 315.151 330.795,313.813 332.063,312.606 332.637 C 311.400 333.211,310.039 334.379,309.583 335.232 C 309.126 336.085,307.593 337.376,306.176 338.101 C 304.759 338.825,302.249 340.629,300.598 342.109 C 298.946 343.589,296.885 344.800,296.016 344.800 C 295.148 344.800,293.876 345.656,293.191 346.702 C 292.505 347.748,290.381 349.201,288.470 349.931 C 286.559 350.660,284.348 351.973,283.557 352.847 C 282.766 353.722,280.112 355.009,277.659 355.707 C 275.207 356.406,272.283 357.835,271.162 358.883 C 269.898 360.065,267.317 361.138,264.362 361.708 C 261.743 362.214,258.880 363.244,258.000 363.995 C 255.459 366.166,254.913 366.347,248.282 367.222 C 244.619 367.706,240.252 368.913,237.807 370.118 C 228.776 374.568,171.224 374.568,162.193 370.118 C 159.748 368.913,155.381 367.706,151.718 367.222 C 145.087 366.347,144.541 366.166,142.000 363.995 C 141.120 363.244,138.257 362.214,135.638 361.708 C 132.683 361.138,130.102 360.065,128.838 358.883 C 127.717 357.835,124.793 356.406,122.341 355.707 C 119.888 355.009,117.234 353.722,116.443 352.847 C 115.652 351.973,113.441 350.660,111.530 349.931 C 109.619 349.201,107.495 347.748,106.809 346.702 C 106.124 345.656,104.852 344.800,103.984 344.800 C 103.115 344.800,101.054 343.589,99.402 342.109 C 97.751 340.629,95.241 338.825,93.824 338.101 C 92.407 337.376,90.874 336.085,90.417 335.232 C 89.961 334.379,88.600 333.211,87.394 332.637 C 86.187 332.063,84.849 330.795,84.420 329.819 C 83.991 328.843,82.688 327.651,81.524 327.168 C 80.360 326.686,79.006 325.411,78.516 324.334 C 78.025 323.257,76.743 321.975,75.666 321.484 C 74.589 320.994,73.314 319.640,72.832 318.476 C 72.349 317.312,71.157 316.009,70.181 315.580 C 69.205 315.151,67.937 313.813,67.363 312.606 C 66.789 311.400,65.621 310.039,64.768 309.583 C 63.915 309.126,62.624 307.593,61.899 306.176 C 61.175 304.759,59.371 302.249,57.891 300.598 C 56.411 298.946,55.200 296.885,55.200 296.016 C 55.200 295.148,54.344 293.876,53.298 293.191 C 52.252 292.505,50.766 290.247,49.997 288.172 C 49.227 286.098,47.794 283.623,46.812 282.673 C 45.830 281.723,44.591 279.203,44.058 277.073 C 43.526 274.943,42.198 272.263,41.108 271.117 C 39.711 269.650,38.865 267.464,38.245 263.717 C 37.760 260.793,37.065 258.400,36.700 258.400 C 35.167 258.400,33.575 254.314,32.789 248.363 C 32.301 244.666,31.096 240.269,29.914 237.869 C 25.376 228.657,25.376 171.343,29.914 162.131 C 31.087 159.749,32.300 155.341,32.778 151.718 C 33.658 145.044,33.841 144.502,36.052 142.000 C 36.829 141.120,37.842 138.338,38.302 135.819 C 39.109 131.399,41.112 127.200,42.412 127.200 C 42.758 127.200,43.478 125.376,44.013 123.146 C 44.548 120.917,45.798 118.307,46.791 117.346 C 47.784 116.386,49.227 113.902,49.997 111.828 C 50.766 109.753,52.252 107.495,53.298 106.809 C 54.344 106.124,55.200 104.852,55.200 103.984 C 55.200 103.115,56.411 101.054,57.891 99.402 C 59.371 97.751,61.175 95.241,61.899 93.824 C 62.624 92.407,63.915 90.874,64.768 90.417 C 65.621 89.961,66.790 88.603,67.367 87.401 C 67.943 86.198,69.363 84.760,70.521 84.205 C 71.680 83.650,72.838 82.358,73.095 81.335 C 73.352 80.312,74.476 79.058,75.593 78.549 C 76.710 78.040,78.040 76.710,78.549 75.593 C 79.058 74.476,80.298 73.355,81.304 73.102 C 82.311 72.850,83.857 71.418,84.740 69.921 C 85.623 68.425,86.890 67.200,87.555 67.200 C 88.219 67.200,89.365 66.282,90.100 65.159 C 90.836 64.037,92.554 62.548,93.919 61.850 C 95.283 61.153,97.751 59.371,99.402 57.891 C 101.054 56.411,103.115 55.200,103.984 55.200 C 104.852 55.200,106.124 54.344,106.809 53.298 C 107.495 52.252,109.753 50.765,111.828 49.993 C 113.902 49.222,116.500 47.769,117.600 46.764 C 118.700 45.760,121.220 44.516,123.200 44.000 C 125.180 43.484,127.719 42.193,128.842 41.133 C 130.152 39.895,132.588 38.893,135.642 38.335 C 138.259 37.857,141.120 36.829,142.000 36.052 C 144.502 33.841,145.044 33.658,151.718 32.778 C 155.421 32.289,159.748 31.087,162.257 29.850 C 168.390 26.827,192.932 25.694,220.636 27.157 M71.305 41.074 C 70.815 41.664,70.591 42.324,70.807 42.540 C 71.023 42.756,70.660 42.933,70.000 42.933 C 68.380 42.933,68.484 41.864,70.200 40.864 C 72.101 39.757,72.357 39.806,71.305 41.074 M331.200 42.295 C 331.200 42.646,330.660 42.933,330.000 42.933 C 329.340 42.933,328.977 42.756,329.193 42.540 C 329.409 42.324,329.139 41.605,328.593 40.943 C 327.727 39.893,327.831 39.861,329.400 40.697 C 330.390 41.225,331.200 41.944,331.200 42.295 M104.817 190.948 C 104.166 191.227,102.222 192.478,100.497 193.728 C 98.771 194.977,96.676 196.000,95.839 196.000 C 94.835 196.000,93.898 197.020,93.081 199.000 C 92.400 200.650,90.978 203.146,89.921 204.547 C 87.029 208.380,87.212 214.613,90.341 218.868 C 91.629 220.619,92.920 222.999,93.210 224.156 C 93.557 225.539,94.461 226.443,95.844 226.790 C 97.001 227.080,99.381 228.371,101.132 229.659 C 105.387 232.788,111.620 232.971,115.453 230.079 C 116.854 229.022,119.350 227.600,121.000 226.919 C 122.890 226.139,124.000 225.151,124.000 224.248 C 124.000 223.459,125.306 220.918,126.901 218.601 C 130.360 213.580,130.498 207.911,127.247 204.450 C 126.266 203.406,125.002 201.210,124.438 199.569 C 123.630 197.218,122.782 196.370,120.431 195.562 C 118.790 194.998,116.594 193.734,115.550 192.753 C 113.620 190.940,107.310 189.879,104.817 190.948 M196.000 190.945 C 195.340 191.222,193.653 192.318,192.252 193.380 C 190.851 194.442,188.714 195.575,187.504 195.899 C 186.034 196.292,185.051 197.269,184.542 198.844 C 184.123 200.140,182.749 202.621,181.490 204.358 C 178.190 208.907,178.351 213.404,182.020 219.163 C 183.549 221.563,184.800 224.144,184.800 224.899 C 184.800 225.769,185.663 226.463,187.154 226.790 C 188.448 227.074,190.965 228.363,192.747 229.653 C 195.305 231.507,196.830 232.000,200.000 232.000 C 203.170 232.000,204.695 231.507,207.253 229.653 C 209.035 228.363,211.552 227.074,212.846 226.790 C 214.304 226.470,215.201 225.764,215.203 224.936 C 215.206 223.494,217.806 218.880,219.659 217.027 C 221.758 214.928,221.127 207.966,218.510 204.358 C 217.251 202.621,215.877 200.140,215.458 198.844 C 214.949 197.269,213.966 196.292,212.496 195.899 C 211.286 195.575,209.008 194.328,207.433 193.127 C 204.570 190.943,198.679 189.819,196.000 190.945 M287.200 190.922 C 286.540 191.187,285.224 192.109,284.276 192.970 C 283.328 193.832,281.210 194.998,279.569 195.562 C 277.218 196.370,276.370 197.218,275.562 199.569 C 274.998 201.210,273.696 203.447,272.668 204.540 C 269.659 207.743,269.999 214.516,273.400 219.120 C 274.830 221.056,276.000 223.324,276.000 224.161 C 276.000 225.165,277.020 226.102,279.000 226.919 C 280.650 227.600,283.146 229.022,284.547 230.079 C 288.380 232.971,294.613 232.788,298.868 229.659 C 300.619 228.371,302.999 227.080,304.156 226.790 C 305.554 226.439,306.436 225.546,306.781 224.131 C 307.067 222.959,308.358 220.671,309.650 219.047 C 312.813 215.072,313.009 208.431,310.079 204.547 C 309.022 203.146,307.600 200.650,306.919 199.000 C 306.102 197.020,305.165 196.000,304.161 196.000 C 303.324 196.000,301.066 194.859,299.141 193.465 C 295.679 190.957,290.082 189.765,287.200 190.922 M42.933 330.156 C 42.933 331.370,41.453 331.159,41.028 329.883 C 40.878 329.434,41.246 329.067,41.844 329.067 C 42.443 329.067,42.933 329.557,42.933 330.156 M358.972 329.883 C 358.547 331.159,357.067 331.370,357.067 330.156 C 357.067 329.557,357.557 329.067,358.156 329.067 C 358.754 329.067,359.122 329.434,358.972 329.883 M70.807 357.460 C 70.591 357.676,70.861 358.395,71.407 359.057 C 72.273 360.107,72.169 360.139,70.600 359.303 C 68.540 358.205,68.234 357.067,70.000 357.067 C 70.660 357.067,71.023 357.244,70.807 357.460 M331.200 357.705 C 331.200 358.056,330.390 358.775,329.400 359.303 C 327.831 360.139,327.727 360.107,328.593 359.057 C 329.139 358.395,329.409 357.676,329.193 357.460 C 328.977 357.244,329.340 357.067,330.000 357.067 C 330.660 357.067,331.200 357.354,331.200 357.705 " stroke="none" fill="#626262" fill-rule="evenodd"></path><path id="path2" d="M103.360 17.760 C 101.958 19.162,102.184 19.917,103.966 19.783 C 104.827 19.718,105.370 19.503,105.173 19.306 C 104.975 19.109,105.215 18.464,105.705 17.874 C 106.870 16.469,104.753 16.367,103.360 17.760 M294.295 17.874 C 294.785 18.464,295.025 19.109,294.827 19.306 C 294.630 19.503,295.173 19.718,296.034 19.783 C 297.816 19.917,298.042 19.162,296.640 17.760 C 295.247 16.367,293.130 16.469,294.295 17.874 M177.457 27.202 C 167.916 27.681,165.968 28.021,162.257 29.850 C 159.748 31.087,155.421 32.289,151.718 32.778 C 145.044 33.658,144.502 33.841,142.000 36.052 C 141.120 36.829,138.259 37.857,135.642 38.335 C 132.588 38.893,130.152 39.895,128.842 41.133 C 127.719 42.193,125.180 43.484,123.200 44.000 C 121.220 44.516,118.700 45.760,117.600 46.764 C 116.500 47.769,113.902 49.222,111.828 49.993 C 109.753 50.765,107.495 52.252,106.809 53.298 C 106.124 54.344,104.852 55.200,103.984 55.200 C 103.115 55.200,101.054 56.411,99.402 57.891 C 97.751 59.371,95.283 61.153,93.919 61.850 C 92.554 62.548,90.836 64.037,90.100 65.159 C 89.365 66.282,88.219 67.200,87.555 67.200 C 86.890 67.200,85.623 68.425,84.740 69.921 C 83.857 71.418,82.311 72.850,81.304 73.102 C 80.298 73.355,79.058 74.476,78.549 75.593 C 78.040 76.710,76.710 78.040,75.593 78.549 C 74.476 79.058,73.352 80.312,73.095 81.335 C 72.838 82.358,71.680 83.650,70.521 84.205 C 69.363 84.760,67.943 86.198,67.367 87.401 C 66.790 88.603,65.621 89.961,64.768 90.417 C 63.915 90.874,62.624 92.407,61.899 93.824 C 61.175 95.241,59.371 97.751,57.891 99.402 C 56.411 101.054,55.200 103.115,55.200 103.984 C 55.200 104.852,54.344 106.124,53.298 106.809 C 52.252 107.495,50.766 109.753,49.997 111.828 C 49.227 113.902,47.784 116.386,46.791 117.346 C 45.798 118.307,44.548 120.917,44.013 123.146 C 43.478 125.376,42.758 127.200,42.412 127.200 C 41.112 127.200,39.109 131.399,38.302 135.819 C 37.842 138.338,36.829 141.120,36.052 142.000 C 33.841 144.502,33.658 145.044,32.778 151.718 C 32.300 155.341,31.087 159.749,29.914 162.131 C 25.376 171.343,25.376 228.657,29.914 237.869 C 31.096 240.269,32.301 244.666,32.789 248.363 C 33.575 254.314,35.167 258.400,36.700 258.400 C 37.065 258.400,37.760 260.793,38.245 263.717 C 38.865 267.464,39.711 269.650,41.108 271.117 C 42.198 272.263,43.526 274.943,44.058 277.073 C 44.591 279.203,45.830 281.723,46.812 282.673 C 47.794 283.623,49.227 286.098,49.997 288.172 C 50.766 290.247,52.252 292.505,53.298 293.191 C 54.344 293.876,55.200 295.148,55.200 296.016 C 55.200 296.885,56.411 298.946,57.891 300.598 C 59.371 302.249,61.175 304.759,61.899 306.176 C 62.624 307.593,63.915 309.126,64.768 309.583 C 65.621 310.039,66.789 311.400,67.363 312.606 C 67.937 313.813,69.205 315.151,70.181 315.580 C 71.157 316.009,72.349 317.312,72.832 318.476 C 73.314 319.640,74.589 320.994,75.666 321.484 C 76.743 321.975,78.025 323.257,78.516 324.334 C 79.006 325.411,80.360 326.686,81.524 327.168 C 82.688 327.651,83.991 328.843,84.420 329.819 C 84.849 330.795,86.187 332.063,87.394 332.637 C 88.600 333.211,89.961 334.379,90.417 335.232 C 90.874 336.085,92.407 337.376,93.824 338.101 C 95.241 338.825,97.751 340.629,99.402 342.109 C 101.054 343.589,103.115 344.800,103.984 344.800 C 104.852 344.800,106.124 345.656,106.809 346.702 C 107.495 347.748,109.619 349.201,111.530 349.931 C 113.441 350.660,115.652 351.973,116.443 352.847 C 117.234 353.722,119.888 355.009,122.341 355.707 C 124.793 356.406,127.717 357.835,128.838 358.883 C 130.102 360.065,132.683 361.138,135.638 361.708 C 138.257 362.214,141.120 363.244,142.000 363.995 C 144.541 366.166,145.087 366.347,151.718 367.222 C 155.381 367.706,159.748 368.913,162.193 370.118 C 171.224 374.568,228.776 374.568,237.807 370.118 C 240.252 368.913,244.619 367.706,248.282 367.222 C 254.913 366.347,255.459 366.166,258.000 363.995 C 258.880 363.244,261.743 362.214,264.362 361.708 C 267.317 361.138,269.898 360.065,271.162 358.883 C 272.283 357.835,275.207 356.406,277.659 355.707 C 280.112 355.009,282.766 353.722,283.557 352.847 C 284.348 351.973,286.559 350.660,288.470 349.931 C 290.381 349.201,292.505 347.748,293.191 346.702 C 293.876 345.656,295.148 344.800,296.016 344.800 C 296.885 344.800,298.946 343.589,300.598 342.109 C 302.249 340.629,304.759 338.825,306.176 338.101 C 307.593 337.376,309.126 336.085,309.583 335.232 C 310.039 334.379,311.400 333.211,312.606 332.637 C 313.813 332.063,315.151 330.795,315.580 329.819 C 316.009 328.843,317.312 327.651,318.476 327.168 C 319.640 326.686,320.994 325.411,321.484 324.334 C 321.975 323.257,323.257 321.975,324.334 321.484 C 325.411 320.994,326.686 319.640,327.168 318.476 C 327.651 317.312,328.843 316.009,329.819 315.580 C 330.795 315.151,332.063 313.813,332.637 312.606 C 333.211 311.400,334.379 310.039,335.232 309.583 C 336.085 309.126,337.376 307.593,338.101 306.176 C 338.825 304.759,340.629 302.249,342.109 300.598 C 343.589 298.946,344.800 296.885,344.800 296.016 C 344.800 295.148,345.681 293.859,346.759 293.154 C 347.836 292.448,349.318 290.297,350.052 288.374 C 350.787 286.452,352.074 284.257,352.912 283.498 C 353.751 282.739,355.009 280.112,355.707 277.659 C 356.406 275.207,357.854 272.263,358.926 271.117 C 360.277 269.673,361.144 267.405,361.755 263.717 C 362.240 260.793,362.935 258.400,363.300 258.400 C 364.833 258.400,366.425 254.314,367.211 248.363 C 367.705 244.621,368.904 240.270,370.121 237.800 C 374.579 228.753,374.601 170.976,370.150 162.396 C 369.037 160.252,367.887 156.406,367.592 153.849 C 366.803 146.993,365.795 143.624,364.062 142.056 C 363.212 141.287,362.285 139.160,362.002 137.329 C 361.203 132.156,360.078 129.119,358.398 127.598 C 357.550 126.831,356.312 124.331,355.647 122.042 C 354.981 119.754,353.722 117.234,352.847 116.443 C 351.973 115.652,350.660 113.441,349.931 111.530 C 349.201 109.619,347.748 107.495,346.702 106.809 C 345.656 106.124,344.800 104.852,344.800 103.984 C 344.800 103.115,343.589 101.054,342.109 99.402 C 340.629 97.751,338.825 95.241,338.101 93.824 C 337.376 92.407,336.085 90.874,335.232 90.417 C 334.379 89.961,333.210 88.603,332.633 87.401 C 332.057 86.198,330.637 84.760,329.479 84.205 C 328.320 83.650,327.162 82.358,326.905 81.335 C 326.648 80.312,325.524 79.058,324.407 78.549 C 323.290 78.040,321.960 76.710,321.451 75.593 C 320.942 74.476,319.702 73.355,318.696 73.102 C 317.689 72.850,316.143 71.418,315.260 69.921 C 314.377 68.425,313.110 67.200,312.445 67.200 C 311.781 67.200,310.635 66.282,309.900 65.159 C 309.164 64.037,307.446 62.548,306.081 61.850 C 304.717 61.153,302.249 59.371,300.598 57.891 C 298.946 56.411,296.885 55.200,296.016 55.200 C 295.148 55.200,293.876 54.344,293.191 53.298 C 292.505 52.252,290.247 50.765,288.172 49.993 C 286.098 49.222,283.500 47.769,282.400 46.764 C 281.300 45.760,278.780 44.516,276.800 44.000 C 274.820 43.484,272.281 42.193,271.158 41.133 C 269.848 39.895,267.412 38.893,264.358 38.335 C 261.741 37.857,258.880 36.829,258.000 36.052 C 255.498 33.841,254.956 33.658,248.282 32.778 C 244.638 32.297,240.252 31.087,237.836 29.897 C 231.600 26.825,206.912 25.723,177.457 27.202 M217.725 29.610 C 222.414 30.054,227.785 30.959,229.660 31.621 C 231.534 32.283,237.000 33.518,241.806 34.367 C 246.611 35.215,251.385 36.461,252.415 37.136 C 253.445 37.811,256.839 39.070,259.958 39.935 C 263.076 40.799,266.571 42.248,267.724 43.155 C 268.877 44.061,271.594 45.330,273.761 45.974 C 275.929 46.618,278.787 48.057,280.113 49.172 C 281.438 50.287,282.962 51.200,283.499 51.200 C 284.542 51.200,294.055 57.096,297.948 60.155 C 299.239 61.170,301.399 62.674,302.748 63.497 C 307.950 66.674,326.133 83.888,331.771 90.974 C 334.988 95.017,339.765 101.632,341.395 104.301 C 342.168 105.566,343.616 107.606,344.614 108.833 C 345.612 110.060,347.284 112.999,348.330 115.364 C 349.376 117.729,350.789 120.127,351.472 120.694 C 352.154 121.260,353.330 123.585,354.084 125.862 C 354.838 128.138,356.118 130.900,356.926 132.000 C 357.735 133.100,359.126 136.635,360.017 139.856 C 360.908 143.077,362.189 146.555,362.864 147.585 C 363.539 148.615,364.785 153.389,365.633 158.194 C 366.482 163.000,367.717 168.466,368.379 170.340 C 371.954 180.473,371.974 219.469,368.410 229.572 C 367.731 231.495,366.486 236.976,365.643 241.751 C 364.769 246.702,363.408 251.569,362.477 253.076 C 361.578 254.529,360.437 257.672,359.940 260.059 C 359.443 262.447,358.024 266.020,356.786 268.000 C 355.548 269.980,354.142 273.088,353.662 274.907 C 353.181 276.726,352.213 278.691,351.510 279.275 C 350.807 279.858,349.376 282.271,348.330 284.636 C 347.284 287.001,345.612 289.940,344.614 291.167 C 343.616 292.394,342.168 294.434,341.395 295.699 C 339.754 298.385,335.029 304.925,331.600 309.255 C 325.712 316.691,310.557 330.989,302.830 336.400 C 300.944 337.720,298.546 339.443,297.501 340.229 C 293.442 343.282,284.427 348.800,283.499 348.800 C 282.962 348.800,281.442 349.709,280.122 350.820 C 278.802 351.931,276.100 353.328,274.119 353.924 C 272.137 354.521,269.413 355.794,268.066 356.753 C 266.719 357.712,263.067 359.204,259.952 360.067 C 256.837 360.930,253.445 362.189,252.415 362.864 C 251.385 363.539,246.611 364.785,241.806 365.633 C 237.000 366.482,231.478 367.747,229.534 368.445 C 220.300 371.761,179.700 371.761,170.466 368.445 C 168.522 367.747,163.000 366.482,158.194 365.633 C 153.389 364.785,148.615 363.539,147.585 362.864 C 146.555 362.189,143.163 360.930,140.048 360.067 C 136.933 359.204,133.281 357.712,131.934 356.753 C 130.587 355.794,127.863 354.521,125.881 353.924 C 123.900 353.328,121.198 351.931,119.878 350.820 C 118.558 349.709,117.038 348.800,116.501 348.800 C 115.573 348.800,106.558 343.282,102.499 340.229 C 101.454 339.443,99.056 337.720,97.170 336.400 C 86.281 328.775,71.225 313.719,63.600 302.830 C 62.280 300.944,60.557 298.546,59.771 297.501 C 56.718 293.442,51.200 284.427,51.200 283.499 C 51.200 282.962,50.287 281.438,49.172 280.113 C 48.057 278.787,46.618 275.929,45.974 273.761 C 45.330 271.594,44.084 268.906,43.205 267.788 C 42.326 266.671,41.022 263.471,40.306 260.678 C 39.591 257.885,38.173 253.980,37.156 252.000 C 36.138 250.020,35.069 246.600,34.780 244.400 C 34.490 242.200,33.134 235.720,31.765 230.000 C 27.989 214.222,27.994 185.740,31.774 170.000 C 33.148 164.280,34.516 157.697,34.815 155.370 C 35.114 153.044,36.185 149.585,37.196 147.684 C 38.207 145.782,39.500 142.145,40.070 139.600 C 40.639 137.055,41.890 133.817,42.850 132.403 C 43.809 130.989,45.200 128.007,45.941 125.778 C 46.682 123.548,47.846 121.260,48.528 120.694 C 49.211 120.127,50.632 117.850,51.688 115.632 C 52.743 113.414,54.415 110.470,55.403 109.088 C 56.391 107.707,57.832 105.547,58.605 104.288 C 59.378 103.030,61.358 100.150,63.005 97.888 C 73.606 83.332,90.911 66.868,104.288 58.612 C 105.547 57.836,107.707 56.391,109.088 55.403 C 110.470 54.414,113.220 52.841,115.200 51.907 C 117.180 50.973,119.520 49.577,120.400 48.804 C 121.280 48.032,123.870 46.793,126.155 46.051 C 128.440 45.309,131.224 43.982,132.341 43.104 C 133.458 42.225,136.924 40.799,140.042 39.935 C 143.161 39.070,146.554 37.812,147.583 37.138 C 148.612 36.463,153.288 35.234,157.974 34.405 C 162.660 33.576,168.252 32.313,170.402 31.599 C 178.042 29.062,201.532 28.074,217.725 29.610 M69.130 39.457 C 67.943 40.478,67.113 41.669,67.286 42.102 C 67.459 42.535,68.625 41.699,69.879 40.245 C 72.536 37.161,72.205 36.812,69.130 39.457 M330.006 40.113 C 331.323 41.640,332.524 42.587,332.676 42.218 C 333.041 41.328,331.338 39.330,329.272 38.224 C 327.994 37.540,328.163 37.975,330.006 40.113 M70.200 40.864 C 68.484 41.864,68.380 42.933,70.000 42.933 C 70.660 42.933,71.023 42.756,70.807 42.540 C 70.591 42.324,70.815 41.664,71.305 41.074 C 72.357 39.806,72.101 39.757,70.200 40.864 M328.593 40.943 C 329.139 41.605,329.409 42.324,329.193 42.540 C 328.977 42.756,329.340 42.933,330.000 42.933 C 331.766 42.933,331.460 41.795,329.400 40.697 C 327.831 39.861,327.727 39.893,328.593 40.943 M61.584 44.419 C 60.465 45.767,60.997 46.867,62.360 46.025 C 62.836 45.730,62.981 45.093,62.682 44.609 C 62.343 44.061,62.592 43.903,63.341 44.190 C 64.003 44.444,65.052 44.331,65.673 43.938 C 66.500 43.414,66.242 43.221,64.698 43.212 C 63.542 43.206,62.141 43.749,61.584 44.419 M334.327 43.938 C 334.948 44.331,335.997 44.444,336.659 44.190 C 337.408 43.903,337.657 44.061,337.318 44.609 C 336.736 45.551,338.196 46.871,338.967 46.099 C 339.880 45.187,337.359 43.200,335.302 43.212 C 333.758 43.221,333.500 43.414,334.327 43.938 M54.400 53.200 C 54.400 53.860,53.860 54.400,53.200 54.400 C 52.540 54.400,52.000 54.773,52.000 55.228 C 52.000 55.791,52.482 55.798,53.506 55.250 C 55.179 54.355,56.388 52.000,55.175 52.000 C 54.749 52.000,54.400 52.540,54.400 53.200 M344.519 53.222 C 345.107 54.755,348.000 56.422,348.000 55.228 C 348.000 54.773,347.460 54.400,346.800 54.400 C 346.140 54.400,345.600 53.860,345.600 53.200 C 345.600 52.540,345.251 52.000,344.825 52.000 C 344.399 52.000,344.261 52.550,344.519 53.222 M44.160 61.760 C 43.632 62.288,43.206 63.638,43.212 64.760 C 43.221 66.267,43.411 66.505,43.938 65.673 C 44.331 65.052,44.461 64.048,44.228 63.440 C 43.988 62.815,44.238 62.436,44.802 62.567 C 45.351 62.695,45.965 62.350,46.167 61.800 C 46.633 60.528,45.416 60.504,44.160 61.760 M353.833 61.800 C 354.035 62.350,354.649 62.695,355.198 62.567 C 355.762 62.436,356.012 62.815,355.772 63.440 C 355.539 64.048,355.669 65.052,356.062 65.673 C 356.589 66.505,356.779 66.267,356.788 64.760 C 356.800 62.732,355.524 60.800,354.173 60.800 C 353.785 60.800,353.632 61.250,353.833 61.800 M39.562 69.317 C 38.483 70.481,37.628 71.831,37.663 72.317 C 37.700 72.835,37.894 72.784,38.131 72.195 C 38.354 71.642,38.866 71.394,39.268 71.642 C 39.671 71.891,40.000 71.577,40.000 70.945 C 40.000 70.312,40.810 69.230,41.800 68.540 C 42.790 67.849,43.133 67.265,42.562 67.242 C 41.991 67.219,40.641 68.153,39.562 69.317 M358.200 68.540 C 359.190 69.230,360.000 70.231,360.000 70.764 C 360.000 71.297,360.534 71.733,361.187 71.733 C 362.136 71.733,362.184 71.479,361.427 70.467 C 360.027 68.597,358.209 67.194,357.247 67.242 C 356.781 67.265,357.210 67.849,358.200 68.540 M4.400 130.400 C 3.539 131.794,4.815 132.983,6.062 131.948 C 6.678 131.437,6.985 130.699,6.744 130.309 C 6.160 129.365,5.012 129.410,4.400 130.400 M393.256 130.309 C 393.015 130.699,393.322 131.437,393.938 131.948 C 395.185 132.983,396.461 131.794,395.600 130.400 C 394.988 129.410,393.840 129.365,393.256 130.309 M0.000 149.600 C 0.000 150.040,0.720 150.400,1.600 150.400 C 2.480 150.400,3.200 150.040,3.200 149.600 C 3.200 149.160,2.480 148.800,1.600 148.800 C 0.720 148.800,0.000 149.160,0.000 149.600 M396.800 149.600 C 396.800 150.040,397.520 150.400,398.400 150.400 C 399.280 150.400,400.000 150.040,400.000 149.600 C 400.000 149.160,399.280 148.800,398.400 148.800 C 397.520 148.800,396.800 149.160,396.800 149.600 M100.800 189.356 C 98.240 190.426,91.202 196.104,90.324 197.807 C 89.816 198.793,88.635 200.439,87.700 201.464 C 85.361 204.030,85.166 217.748,87.425 220.846 C 88.209 221.921,89.582 223.948,90.475 225.350 C 91.368 226.753,93.247 228.632,94.650 229.525 C 96.052 230.418,98.079 231.791,99.154 232.575 C 102.252 234.834,115.970 234.639,118.536 232.300 C 119.561 231.365,121.218 230.178,122.219 229.662 C 123.219 229.146,125.672 226.491,127.671 223.762 L 131.304 218.800 131.052 210.800 C 130.792 202.534,128.074 196.670,123.308 194.093 C 122.588 193.704,120.987 192.444,119.749 191.293 C 117.482 189.185,104.405 187.848,100.800 189.356 M191.514 189.774 C 185.986 193.140,183.240 195.378,181.742 197.737 C 180.812 199.201,179.409 201.279,178.625 202.354 C 176.571 205.170,176.571 218.030,178.625 220.846 C 179.409 221.921,180.782 223.948,181.675 225.350 C 182.568 226.753,184.447 228.632,185.850 229.525 C 187.252 230.418,189.193 231.733,190.162 232.447 C 194.381 235.555,206.905 234.848,211.740 231.230 C 227.611 219.354,227.362 203.506,211.110 191.200 C 207.962 188.816,194.675 187.849,191.514 189.774 M282.682 189.558 C 281.737 189.959,280.708 190.702,280.395 191.209 C 280.082 191.715,278.828 192.736,277.609 193.478 C 276.390 194.219,273.999 196.620,272.296 198.813 L 269.200 202.800 269.200 211.200 L 269.200 219.600 272.607 224.176 C 274.481 226.692,276.821 229.167,277.807 229.676 C 278.793 230.184,280.439 231.365,281.464 232.300 C 284.158 234.756,297.702 234.825,301.135 232.400 C 302.381 231.520,304.341 230.177,305.491 229.416 C 313.494 224.116,317.561 207.242,312.244 201.404 C 311.340 200.412,310.184 198.793,309.676 197.807 C 306.224 191.111,290.406 186.277,282.682 189.558 M115.550 192.753 C 116.594 193.734,118.790 194.998,120.431 195.562 C 122.782 196.370,123.630 197.218,124.438 199.569 C 125.002 201.210,126.266 203.406,127.247 204.450 C 130.498 207.911,130.360 213.580,126.901 218.601 C 125.306 220.918,124.000 223.459,124.000 224.248 C 124.000 225.151,122.890 226.139,121.000 226.919 C 119.350 227.600,116.854 229.022,115.453 230.079 C 111.620 232.971,105.387 232.788,101.132 229.659 C 99.381 228.371,97.001 227.080,95.844 226.790 C 94.461 226.443,93.557 225.539,93.210 224.156 C 92.920 222.999,91.629 220.619,90.341 218.868 C 87.212 214.613,87.029 208.380,89.921 204.547 C 90.978 203.146,92.400 200.650,93.081 199.000 C 93.898 197.020,94.835 196.000,95.839 196.000 C 96.676 196.000,98.771 194.977,100.497 193.728 C 105.977 189.758,111.950 189.371,115.550 192.753 M207.433 193.127 C 209.008 194.328,211.286 195.575,212.496 195.899 C 213.966 196.292,214.949 197.269,215.458 198.844 C 215.877 200.140,217.251 202.621,218.510 204.358 C 221.127 207.966,221.758 214.928,219.659 217.027 C 217.806 218.880,215.206 223.494,215.203 224.936 C 215.201 225.764,214.304 226.470,212.846 226.790 C 211.552 227.074,209.035 228.363,207.253 229.653 C 204.695 231.507,203.170 232.000,200.000 232.000 C 196.830 232.000,195.305 231.507,192.747 229.653 C 190.965 228.363,188.448 227.074,187.154 226.790 C 185.663 226.463,184.800 225.769,184.800 224.899 C 184.800 224.144,183.549 221.563,182.020 219.163 C 178.351 213.404,178.190 208.907,181.490 204.358 C 182.749 202.621,184.123 200.140,184.542 198.844 C 185.051 197.269,186.034 196.292,187.504 195.899 C 188.714 195.575,190.851 194.442,192.252 193.380 C 197.218 189.617,202.711 189.525,207.433 193.127 M299.141 193.465 C 301.066 194.859,303.324 196.000,304.161 196.000 C 305.165 196.000,306.102 197.020,306.919 199.000 C 307.600 200.650,309.022 203.146,310.079 204.547 C 313.009 208.431,312.813 215.072,309.650 219.047 C 308.358 220.671,307.067 222.959,306.781 224.131 C 306.436 225.546,305.554 226.439,304.156 226.790 C 302.999 227.080,300.619 228.371,298.868 229.659 C 294.613 232.788,288.380 232.971,284.547 230.079 C 283.146 229.022,280.650 227.600,279.000 226.919 C 277.020 226.102,276.000 225.165,276.000 224.161 C 276.000 223.324,274.830 221.056,273.400 219.120 C 269.999 214.516,269.659 207.743,272.668 204.540 C 273.696 203.447,274.998 201.210,275.562 199.569 C 276.370 197.218,277.218 196.370,279.569 195.562 C 281.210 194.998,283.328 193.832,284.276 192.970 C 288.101 189.495,293.928 189.689,299.141 193.465 M0.000 250.400 C 0.000 250.840,0.720 251.200,1.600 251.200 C 2.480 251.200,3.200 250.840,3.200 250.400 C 3.200 249.960,2.480 249.600,1.600 249.600 C 0.720 249.600,0.000 249.960,0.000 250.400 M396.800 250.400 C 396.800 250.840,397.520 251.200,398.400 251.200 C 399.280 251.200,400.000 250.840,400.000 250.400 C 400.000 249.960,399.280 249.600,398.400 249.600 C 397.520 249.600,396.800 249.960,396.800 250.400 M4.381 268.031 C 3.575 269.336,5.366 270.954,6.434 269.886 C 7.012 269.308,6.912 268.757,6.105 268.087 C 5.246 267.374,4.796 267.359,4.381 268.031 M393.687 268.295 C 392.974 269.154,392.959 269.604,393.631 270.019 C 394.936 270.825,396.554 269.034,395.486 267.966 C 394.908 267.388,394.357 267.488,393.687 268.295 M38.224 329.272 C 39.330 331.338,41.328 333.041,42.218 332.676 C 42.587 332.524,41.640 331.323,40.113 330.006 C 37.975 328.163,37.540 327.994,38.224 329.272 M359.387 330.423 C 357.950 331.731,357.265 332.800,357.863 332.800 C 358.911 332.800,360.734 331.094,361.926 329.000 C 362.769 327.518,362.281 327.791,359.387 330.423 M41.028 329.883 C 41.453 331.159,42.933 331.370,42.933 330.156 C 42.933 329.557,42.443 329.067,41.844 329.067 C 41.246 329.067,40.878 329.434,41.028 329.883 M357.067 330.156 C 357.067 330.754,357.434 331.122,357.883 330.972 C 359.159 330.547,359.370 329.067,358.156 329.067 C 357.557 329.067,357.067 329.557,357.067 330.156 M43.212 335.302 C 43.200 337.359,45.187 339.880,46.099 338.967 C 46.871 338.196,45.551 336.736,44.609 337.318 C 44.061 337.657,43.903 337.408,44.190 336.659 C 44.444 335.997,44.331 334.948,43.938 334.327 C 43.414 333.500,43.221 333.758,43.212 335.302 M356.014 334.400 C 355.902 335.060,355.870 336.056,355.943 336.613 C 356.016 337.170,355.654 337.530,355.138 337.413 C 354.622 337.296,354.035 337.650,353.833 338.200 C 353.632 338.750,353.813 339.200,354.235 339.200 C 355.642 339.200,356.927 336.912,356.570 335.044 C 356.377 334.030,356.126 333.740,356.014 334.400 M52.000 344.825 C 52.000 345.251,52.540 345.600,53.200 345.600 C 53.860 345.600,54.400 346.140,54.400 346.800 C 54.400 347.460,54.773 348.000,55.228 348.000 C 55.791 348.000,55.798 347.518,55.250 346.494 C 54.355 344.821,52.000 343.612,52.000 344.825 M60.800 354.173 C 60.800 355.524,62.732 356.800,64.760 356.788 C 66.267 356.779,66.505 356.589,65.673 356.062 C 65.052 355.669,64.048 355.539,63.440 355.772 C 62.815 356.012,62.436 355.762,62.567 355.198 C 62.695 354.649,62.350 354.035,61.800 353.833 C 61.250 353.632,60.800 353.785,60.800 354.173 M337.505 354.200 C 337.453 354.530,337.468 355.114,337.538 355.498 C 337.608 355.882,337.168 356.005,336.560 355.772 C 335.952 355.539,334.948 355.669,334.327 356.062 C 333.495 356.589,333.733 356.779,335.240 356.788 C 337.227 356.800,339.200 355.530,339.200 354.240 C 339.200 353.429,337.633 353.392,337.505 354.200 M67.200 357.743 C 67.200 358.947,68.915 360.773,71.200 362.002 C 71.860 362.357,71.320 361.424,70.000 359.928 C 68.680 358.432,67.510 357.056,67.400 356.871 C 67.290 356.685,67.200 357.078,67.200 357.743 M68.800 357.705 C 68.800 358.056,69.610 358.775,70.600 359.303 C 72.169 360.139,72.273 360.107,71.407 359.057 C 70.861 358.395,70.591 357.676,70.807 357.460 C 71.023 357.244,70.660 357.067,70.000 357.067 C 69.340 357.067,68.800 357.354,68.800 357.705 M329.193 357.460 C 329.409 357.676,329.139 358.395,328.593 359.057 C 327.727 360.107,327.831 360.139,329.400 359.303 C 331.460 358.205,331.766 357.067,330.000 357.067 C 329.340 357.067,328.977 357.244,329.193 357.460 M330.006 359.887 C 328.163 362.025,327.994 362.460,329.272 361.776 C 331.338 360.670,333.041 358.672,332.676 357.782 C 332.524 357.413,331.323 358.360,330.006 359.887 M102.400 380.690 C 102.400 381.680,104.252 383.200,105.458 383.200 C 106.319 383.200,106.379 382.939,105.705 382.126 C 105.215 381.536,104.975 380.891,105.173 380.694 C 105.370 380.497,104.827 380.282,103.966 380.217 C 103.105 380.153,102.400 380.365,102.400 380.690 M294.827 380.694 C 295.025 380.891,294.785 381.536,294.295 382.126 C 293.130 383.531,295.247 383.633,296.640 382.240 C 298.042 380.838,297.816 380.083,296.034 380.217 C 295.173 380.282,294.630 380.497,294.827 380.694 " stroke="none" fill="#989898" fill-rule="evenodd"></path><path id="path3" d="M180.955 29.660 C 177.299 30.013,172.551 30.886,170.402 31.599 C 168.252 32.313,162.660 33.576,157.974 34.405 C 153.288 35.234,148.612 36.463,147.583 37.138 C 146.554 37.812,143.161 39.070,140.042 39.935 C 136.924 40.799,133.458 42.225,132.341 43.104 C 131.224 43.982,128.440 45.309,126.155 46.051 C 123.870 46.793,121.280 48.032,120.400 48.804 C 119.520 49.577,117.180 50.973,115.200 51.907 C 113.220 52.841,110.470 54.414,109.088 55.403 C 107.707 56.391,105.547 57.836,104.288 58.612 C 94.035 64.940,76.227 80.922,68.229 90.974 C 65.049 94.971,60.250 101.611,58.605 104.288 C 57.832 105.547,56.391 107.707,55.403 109.088 C 54.415 110.470,52.743 113.414,51.688 115.632 C 50.632 117.850,49.211 120.127,48.528 120.694 C 47.846 121.260,46.682 123.548,45.941 125.778 C 45.200 128.007,43.809 130.989,42.850 132.403 C 41.890 133.817,40.639 137.055,40.070 139.600 C 39.500 142.145,38.207 145.782,37.196 147.684 C 36.185 149.585,35.114 153.044,34.815 155.370 C 34.516 157.697,33.148 164.280,31.774 170.000 C 27.994 185.740,27.989 214.222,31.765 230.000 C 33.134 235.720,34.490 242.200,34.780 244.400 C 35.069 246.600,36.138 250.020,37.156 252.000 C 38.173 253.980,39.591 257.885,40.306 260.678 C 41.022 263.471,42.326 266.671,43.205 267.788 C 44.084 268.906,45.330 271.594,45.974 273.761 C 46.618 275.929,48.057 278.787,49.172 280.113 C 50.287 281.438,51.200 282.962,51.200 283.499 C 51.200 284.427,56.718 293.442,59.771 297.501 C 60.557 298.546,62.280 300.944,63.600 302.830 C 67.965 309.063,70.714 312.212,79.243 320.749 C 87.745 329.259,90.877 331.993,97.170 336.400 C 99.056 337.720,101.454 339.443,102.499 340.229 C 106.558 343.282,115.573 348.800,116.501 348.800 C 117.038 348.800,118.558 349.709,119.878 350.820 C 121.198 351.931,123.900 353.328,125.881 353.924 C 127.863 354.521,130.587 355.794,131.934 356.753 C 133.281 357.712,136.933 359.204,140.048 360.067 C 143.163 360.930,146.555 362.189,147.585 362.864 C 148.615 363.539,153.389 364.785,158.194 365.633 C 163.000 366.482,168.522 367.747,170.466 368.445 C 179.700 371.761,220.300 371.761,229.534 368.445 C 231.478 367.747,237.000 366.482,241.806 365.633 C 246.611 364.785,251.385 363.539,252.415 362.864 C 253.445 362.189,256.837 360.930,259.952 360.067 C 263.067 359.204,266.719 357.712,268.066 356.753 C 269.413 355.794,272.137 354.521,274.119 353.924 C 276.100 353.328,278.802 351.931,280.122 350.820 C 281.442 349.709,282.962 348.800,283.499 348.800 C 284.427 348.800,293.442 343.282,297.501 340.229 C 298.546 339.443,300.944 337.720,302.830 336.400 C 310.557 330.989,325.712 316.691,331.600 309.255 C 335.029 304.925,339.754 298.385,341.395 295.699 C 342.168 294.434,343.616 292.394,344.614 291.167 C 345.612 289.940,347.284 287.001,348.330 284.636 C 349.376 282.271,350.807 279.858,351.510 279.275 C 352.213 278.691,353.181 276.726,353.662 274.907 C 354.142 273.088,355.548 269.980,356.786 268.000 C 358.024 266.020,359.443 262.447,359.940 260.059 C 360.437 257.672,361.578 254.529,362.477 253.076 C 363.408 251.569,364.769 246.702,365.643 241.751 C 366.486 236.976,367.731 231.495,368.410 229.572 C 371.974 219.469,371.954 180.473,368.379 170.340 C 367.717 168.466,366.482 163.000,365.633 158.194 C 364.785 153.389,363.539 148.615,362.864 147.585 C 362.189 146.555,360.908 143.077,360.017 139.856 C 359.126 136.635,357.735 133.100,356.926 132.000 C 356.118 130.900,354.838 128.138,354.084 125.862 C 353.330 123.585,352.154 121.260,351.472 120.694 C 350.789 120.127,349.376 117.729,348.330 115.364 C 347.284 112.999,345.612 110.060,344.614 108.833 C 343.616 107.606,342.168 105.566,341.395 104.301 C 339.765 101.632,334.988 95.017,331.771 90.974 C 326.133 83.888,307.950 66.674,302.748 63.497 C 301.399 62.674,299.239 61.170,297.948 60.155 C 294.055 57.096,284.542 51.200,283.499 51.200 C 282.962 51.200,281.438 50.287,280.113 49.172 C 278.787 48.057,275.929 46.618,273.761 45.974 C 271.594 45.330,268.877 44.061,267.724 43.155 C 266.571 42.248,263.076 40.799,259.958 39.935 C 256.839 39.070,253.445 37.811,252.415 37.136 C 251.385 36.461,246.611 35.215,241.806 34.367 C 237.000 33.518,231.534 32.283,229.660 31.621 C 222.532 29.106,197.234 28.088,180.955 29.660 M217.600 32.786 C 221.168 34.567,224.541 35.166,235.774 36.013 C 243.708 36.611,245.143 36.947,247.204 38.681 C 249.634 40.726,251.021 41.148,258.200 42.033 C 260.510 42.317,262.400 42.868,262.400 43.257 C 262.400 44.423,266.151 46.514,269.656 47.302 C 271.464 47.708,274.262 49.077,275.872 50.344 C 277.482 51.611,279.970 52.891,281.399 53.187 C 282.828 53.484,284.448 54.365,284.999 55.144 C 286.265 56.937,290.606 59.200,292.780 59.200 C 293.822 59.200,294.728 59.958,295.214 61.236 C 295.639 62.356,297.047 63.718,298.342 64.262 C 299.636 64.806,301.465 66.230,302.406 67.426 C 303.347 68.622,304.503 69.600,304.975 69.600 C 305.448 69.600,307.547 71.130,309.641 73.000 C 311.734 74.870,313.932 76.790,314.524 77.266 C 317.353 79.542,330.400 94.034,330.400 94.900 C 330.400 95.441,331.378 96.653,332.574 97.594 C 333.770 98.535,335.194 100.364,335.738 101.658 C 336.282 102.953,337.644 104.361,338.764 104.786 C 340.049 105.275,340.800 106.177,340.800 107.233 C 340.800 109.310,342.048 111.793,344.401 114.400 C 345.394 115.500,346.621 117.697,347.127 119.282 C 347.633 120.868,348.921 122.987,349.991 123.991 C 351.182 125.110,352.132 127.137,352.446 129.226 C 352.978 132.774,355.437 137.600,356.713 137.600 C 357.118 137.600,357.683 139.490,357.967 141.800 C 358.852 148.979,359.274 150.366,361.318 152.795 C 363.079 154.888,363.386 156.278,364.065 165.247 C 364.563 171.829,365.409 176.920,366.494 179.872 C 369.953 189.281,370.064 208.763,366.716 218.889 C 365.469 222.661,364.577 227.992,364.068 234.713 C 363.386 243.722,363.080 245.111,361.318 247.205 C 359.274 249.634,358.852 251.021,357.967 258.200 C 357.683 260.510,357.132 262.400,356.743 262.400 C 355.577 262.400,353.486 266.151,352.698 269.656 C 352.292 271.464,350.944 274.262,349.703 275.872 C 348.461 277.482,347.016 280.330,346.491 282.200 C 345.966 284.070,345.185 285.600,344.756 285.600 C 343.587 285.600,340.806 290.539,340.803 292.620 C 340.801 293.832,340.120 294.698,338.761 295.215 C 337.606 295.654,336.236 297.154,335.599 298.678 C 334.982 300.156,333.559 301.967,332.438 302.701 C 331.317 303.436,330.400 304.483,330.400 305.028 C 330.400 305.947,320.580 317.044,316.000 321.302 C 308.549 328.229,305.936 330.400,305.048 330.400 C 304.492 330.400,303.436 331.317,302.701 332.438 C 301.967 333.559,300.156 334.982,298.678 335.599 C 297.154 336.236,295.654 337.606,295.215 338.761 C 294.728 340.042,293.823 340.800,292.780 340.800 C 290.606 340.800,286.265 343.063,284.999 344.856 C 284.448 345.635,282.828 346.516,281.399 346.813 C 279.970 347.109,277.482 348.389,275.872 349.656 C 274.262 350.923,271.464 352.292,269.656 352.698 C 266.151 353.486,262.400 355.577,262.400 356.743 C 262.400 357.132,260.510 357.683,258.200 357.967 C 251.021 358.852,249.634 359.274,247.205 361.318 C 245.121 363.072,243.717 363.387,235.025 364.045 C 229.051 364.497,223.005 365.482,219.600 366.556 C 211.333 369.164,188.667 369.164,180.400 366.556 C 176.995 365.482,170.949 364.497,164.975 364.045 C 156.283 363.387,154.879 363.072,152.795 361.318 C 150.366 359.274,148.979 358.852,141.800 357.967 C 139.490 357.683,137.600 357.132,137.600 356.743 C 137.600 355.577,133.849 353.486,130.344 352.698 C 128.536 352.292,125.738 350.923,124.128 349.656 C 122.518 348.389,120.030 347.109,118.601 346.813 C 117.172 346.516,115.552 345.635,115.001 344.856 C 113.735 343.063,109.394 340.800,107.220 340.800 C 106.177 340.800,105.272 340.042,104.785 338.761 C 104.338 337.585,102.836 336.232,101.234 335.563 C 99.707 334.925,98.061 333.662,97.577 332.756 C 97.092 331.851,95.990 330.849,95.127 330.530 C 92.218 329.454,85.888 323.494,73.000 309.698 C 71.130 307.697,69.600 305.622,69.600 305.088 C 69.600 304.553,68.622 303.347,67.426 302.406 C 66.230 301.465,64.806 299.636,64.262 298.342 C 63.718 297.047,62.356 295.639,61.236 295.214 C 59.958 294.728,59.200 293.822,59.200 292.780 C 59.200 290.606,56.937 286.265,55.144 284.999 C 54.365 284.448,53.484 282.828,53.187 281.399 C 52.891 279.970,51.603 277.472,50.326 275.850 C 49.049 274.227,47.623 271.120,47.157 268.946 C 46.664 266.651,45.509 264.241,44.400 263.200 C 43.027 261.910,42.336 260.142,41.938 256.903 C 41.262 251.391,40.379 248.919,38.292 246.690 C 36.964 245.273,36.569 243.257,35.976 234.888 C 35.210 224.090,34.228 219.181,32.202 216.025 C 30.338 213.123,30.338 186.877,32.202 183.975 C 34.225 180.823,35.210 175.913,35.970 165.189 C 36.604 156.245,36.893 154.920,38.672 152.806 C 40.726 150.366,41.148 148.983,42.033 141.800 C 42.317 139.490,42.882 137.600,43.287 137.600 C 44.561 137.600,47.022 132.776,47.553 129.237 C 47.890 126.987,48.837 125.097,50.357 123.641 C 51.619 122.432,52.879 120.229,53.158 118.745 C 53.436 117.260,54.316 115.586,55.113 115.023 C 56.933 113.738,59.200 109.409,59.200 107.220 C 59.200 106.178,59.958 105.272,61.236 104.786 C 62.356 104.361,63.718 102.953,64.262 101.658 C 64.806 100.364,66.230 98.535,67.426 97.594 C 68.622 96.653,69.600 95.447,69.600 94.912 C 69.600 93.290,83.974 78.358,90.501 73.200 C 92.728 71.440,95.686 68.918,97.075 67.596 C 98.464 66.274,100.597 64.749,101.816 64.206 C 103.035 63.664,104.376 62.315,104.796 61.210 C 105.273 59.955,106.184 59.200,107.220 59.200 C 109.394 59.200,113.735 56.937,115.001 55.144 C 115.552 54.365,117.172 53.484,118.601 53.187 C 120.030 52.891,122.518 51.611,124.128 50.344 C 125.738 49.077,128.536 47.708,130.344 47.302 C 133.849 46.514,137.600 44.423,137.600 43.257 C 137.600 42.868,139.490 42.317,141.800 42.033 C 148.979 41.148,150.366 40.726,152.796 38.681 C 154.857 36.947,156.292 36.611,164.226 36.013 C 175.368 35.173,178.907 34.555,182.000 32.909 C 187.178 30.154,212.155 30.067,217.600 32.786 M97.851 187.282 C 96.449 187.688,95.084 188.705,94.818 189.543 C 94.552 190.381,93.269 191.438,91.967 191.892 C 90.665 192.345,89.600 193.131,89.600 193.637 C 89.600 194.144,88.430 195.650,87.000 196.985 L 84.400 199.411 84.144 210.745 L 83.887 222.079 87.642 226.640 C 89.706 229.148,91.747 231.200,92.177 231.200 C 92.607 231.200,93.992 232.307,95.255 233.659 L 97.553 236.119 109.071 235.859 L 120.589 235.600 123.054 233.200 C 124.410 231.880,126.083 230.260,126.773 229.600 C 133.296 223.359,133.991 221.112,133.464 207.973 C 133.113 199.253,133.688 200.475,126.607 193.392 C 122.143 188.927,121.054 188.057,118.898 187.237 C 116.230 186.223,101.401 186.255,97.851 187.282 M189.816 186.924 C 188.835 187.135,187.395 188.095,186.616 189.058 C 185.837 190.020,184.191 191.457,182.957 192.251 C 181.723 193.044,180.486 194.287,180.207 195.014 C 179.929 195.740,178.778 197.128,177.650 198.098 C 174.457 200.845,174.451 222.382,177.643 225.076 C 178.767 226.024,180.305 227.790,181.062 229.000 C 181.818 230.210,182.824 231.200,183.297 231.200 C 183.771 231.200,185.167 232.280,186.400 233.600 L 188.642 236.000 200.000 236.000 L 211.358 236.000 213.600 233.600 C 214.833 232.280,216.229 231.200,216.703 231.200 C 217.176 231.200,218.182 230.210,218.938 229.000 C 219.695 227.790,221.233 226.024,222.357 225.076 C 225.549 222.382,225.543 200.845,222.350 198.098 C 221.222 197.128,220.071 195.740,219.793 195.014 C 219.514 194.287,218.279 193.042,217.048 192.247 C 215.817 191.451,214.029 189.900,213.075 188.800 C 211.352 186.815,196.063 185.582,189.816 186.924 M280.861 187.276 C 278.955 188.038,277.796 188.987,273.393 193.392 C 266.312 200.475,266.887 199.253,266.536 207.973 C 266.009 221.112,266.704 223.359,273.227 229.600 C 273.917 230.260,275.590 231.880,276.946 233.200 L 279.411 235.600 290.929 235.859 L 302.447 236.119 304.745 233.659 C 306.008 232.307,307.393 231.200,307.823 231.200 C 308.253 231.200,310.294 229.148,312.358 226.640 L 316.113 222.079 315.856 210.745 L 315.600 199.411 313.000 196.985 C 311.570 195.650,310.400 194.144,310.400 193.637 C 310.400 193.131,309.335 192.345,308.033 191.892 C 306.731 191.438,305.450 190.388,305.187 189.558 C 304.284 186.713,286.455 185.041,280.861 187.276 M119.749 191.293 C 120.987 192.444,122.588 193.704,123.308 194.093 C 128.074 196.670,130.792 202.534,131.052 210.800 L 131.304 218.800 127.671 223.762 C 125.672 226.491,123.219 229.146,122.219 229.662 C 121.218 230.178,119.561 231.365,118.536 232.300 C 115.970 234.639,102.252 234.834,99.154 232.575 C 98.079 231.791,96.052 230.418,94.650 229.525 C 93.247 228.632,91.368 226.753,90.475 225.350 C 89.582 223.948,88.209 221.921,87.425 220.846 C 85.166 217.748,85.361 204.030,87.700 201.464 C 88.635 200.439,89.816 198.793,90.324 197.807 C 91.202 196.104,98.240 190.426,100.800 189.356 C 104.405 187.848,117.482 189.185,119.749 191.293 M211.110 191.200 C 227.362 203.506,227.611 219.354,211.740 231.230 C 206.905 234.848,194.381 235.555,190.162 232.447 C 189.193 231.733,187.252 230.418,185.850 229.525 C 184.447 228.632,182.568 226.753,181.675 225.350 C 180.782 223.948,179.409 221.921,178.625 220.846 C 176.571 218.030,176.571 205.170,178.625 202.354 C 179.409 201.279,180.812 199.201,181.742 197.737 C 183.240 195.378,185.986 193.140,191.514 189.774 C 194.675 187.849,207.962 188.816,211.110 191.200 M304.176 192.607 C 306.692 194.481,309.167 196.821,309.676 197.807 C 310.184 198.793,311.340 200.412,312.244 201.404 C 317.561 207.242,313.494 224.116,305.491 229.416 C 304.341 230.177,302.381 231.520,301.135 232.400 C 297.702 234.825,284.158 234.756,281.464 232.300 C 280.439 231.365,278.793 230.184,277.807 229.676 C 276.821 229.167,274.481 226.692,272.607 224.176 L 269.200 219.600 269.200 211.200 L 269.200 202.800 272.296 198.813 C 273.999 196.620,276.390 194.219,277.609 193.478 C 278.828 192.736,280.082 191.715,280.395 191.209 C 282.901 187.153,298.047 188.044,304.176 192.607 " stroke="none" fill="#d8d8d8" fill-rule="evenodd"></path><path id="path4" d="M102.796 17.605 C 100.751 19.865,101.621 20.075,103.771 17.840 C 104.746 16.828,105.251 16.000,104.895 16.000 C 104.539 16.000,103.594 16.722,102.796 17.605 M296.229 17.840 C 297.203 18.853,298.148 19.575,298.328 19.445 C 298.795 19.111,295.885 16.000,295.105 16.000 C 294.749 16.000,295.254 16.828,296.229 17.840 M190.000 31.107 C 186.920 31.396,183.320 32.207,182.000 32.909 C 178.907 34.555,175.368 35.173,164.226 36.013 C 156.292 36.611,154.857 36.947,152.796 38.681 C 150.366 40.726,148.979 41.148,141.800 42.033 C 139.490 42.317,137.600 42.868,137.600 43.257 C 137.600 44.423,133.849 46.514,130.344 47.302 C 128.536 47.708,125.738 49.077,124.128 50.344 C 122.518 51.611,120.030 52.891,118.601 53.187 C 117.172 53.484,115.552 54.365,115.001 55.144 C 113.735 56.937,109.394 59.200,107.220 59.200 C 106.184 59.200,105.273 59.955,104.796 61.210 C 104.376 62.315,103.035 63.664,101.816 64.206 C 100.597 64.749,98.464 66.274,97.075 67.596 C 95.686 68.918,92.728 71.440,90.501 73.200 C 83.974 78.358,69.600 93.290,69.600 94.912 C 69.600 95.447,68.622 96.653,67.426 97.594 C 66.230 98.535,64.806 100.364,64.262 101.658 C 63.718 102.953,62.356 104.361,61.236 104.786 C 59.958 105.272,59.200 106.178,59.200 107.220 C 59.200 109.409,56.933 113.738,55.113 115.023 C 54.316 115.586,53.436 117.260,53.158 118.745 C 52.879 120.229,51.619 122.432,50.357 123.641 C 48.837 125.097,47.890 126.987,47.553 129.237 C 47.022 132.776,44.561 137.600,43.287 137.600 C 42.882 137.600,42.317 139.490,42.033 141.800 C 41.148 148.983,40.726 150.366,38.672 152.806 C 36.893 154.920,36.604 156.245,35.970 165.189 C 35.210 175.913,34.225 180.823,32.202 183.975 C 30.338 186.877,30.338 213.123,32.202 216.025 C 34.228 219.181,35.210 224.090,35.976 234.888 C 36.569 243.257,36.964 245.273,38.292 246.690 C 40.379 248.919,41.262 251.391,41.938 256.903 C 42.336 260.142,43.027 261.910,44.400 263.200 C 45.509 264.241,46.664 266.651,47.157 268.946 C 47.623 271.120,49.049 274.227,50.326 275.850 C 51.603 277.472,52.891 279.970,53.187 281.399 C 53.484 282.828,54.365 284.448,55.144 284.999 C 56.937 286.265,59.200 290.606,59.200 292.780 C 59.200 293.822,59.958 294.728,61.236 295.214 C 62.356 295.639,63.718 297.047,64.262 298.342 C 64.806 299.636,66.230 301.465,67.426 302.406 C 68.622 303.347,69.600 304.553,69.600 305.088 C 69.600 307.437,91.378 329.143,95.127 330.530 C 95.990 330.849,97.092 331.851,97.577 332.756 C 98.061 333.662,99.707 334.925,101.234 335.563 C 102.836 336.232,104.338 337.585,104.785 338.761 C 105.272 340.042,106.177 340.800,107.220 340.800 C 109.394 340.800,113.735 343.063,115.001 344.856 C 115.552 345.635,117.172 346.516,118.601 346.813 C 120.030 347.109,122.518 348.389,124.128 349.656 C 125.738 350.923,128.536 352.292,130.344 352.698 C 133.849 353.486,137.600 355.577,137.600 356.743 C 137.600 357.132,139.490 357.683,141.800 357.967 C 148.979 358.852,150.366 359.274,152.795 361.318 C 154.879 363.072,156.283 363.387,164.975 364.045 C 170.949 364.497,176.995 365.482,180.400 366.556 C 188.667 369.164,211.333 369.164,219.600 366.556 C 223.005 365.482,229.051 364.497,235.025 364.045 C 243.717 363.387,245.121 363.072,247.205 361.318 C 249.634 359.274,251.021 358.852,258.200 357.967 C 260.510 357.683,262.400 357.132,262.400 356.743 C 262.400 355.577,266.151 353.486,269.656 352.698 C 271.464 352.292,274.262 350.923,275.872 349.656 C 277.482 348.389,279.970 347.109,281.399 346.813 C 282.828 346.516,284.448 345.635,284.999 344.856 C 286.265 343.063,290.606 340.800,292.780 340.800 C 293.823 340.800,294.728 340.042,295.215 338.761 C 295.654 337.606,297.154 336.236,298.678 335.599 C 300.156 334.982,301.967 333.559,302.701 332.438 C 303.436 331.317,304.492 330.400,305.048 330.400 C 305.936 330.400,308.549 328.229,316.000 321.302 C 320.580 317.044,330.400 305.947,330.400 305.028 C 330.400 304.483,331.317 303.436,332.438 302.701 C 333.559 301.967,334.982 300.156,335.599 298.678 C 336.236 297.154,337.606 295.654,338.761 295.215 C 340.120 294.698,340.801 293.832,340.803 292.620 C 340.806 290.539,343.587 285.600,344.756 285.600 C 345.185 285.600,345.966 284.070,346.491 282.200 C 347.016 280.330,348.461 277.482,349.703 275.872 C 350.944 274.262,352.292 271.464,352.698 269.656 C 353.486 266.151,355.577 262.400,356.743 262.400 C 357.132 262.400,357.683 260.510,357.967 258.200 C 358.852 251.021,359.274 249.634,361.318 247.205 C 363.080 245.111,363.386 243.722,364.068 234.713 C 364.577 227.992,365.469 222.661,366.716 218.889 C 370.064 208.763,369.953 189.281,366.494 179.872 C 365.409 176.920,364.563 171.829,364.065 165.247 C 363.386 156.278,363.079 154.888,361.318 152.795 C 359.274 150.366,358.852 148.979,357.967 141.800 C 357.683 139.490,357.118 137.600,356.713 137.600 C 355.437 137.600,352.978 132.774,352.446 129.226 C 352.132 127.137,351.182 125.110,349.991 123.991 C 348.921 122.987,347.633 120.868,347.127 119.282 C 346.621 117.697,345.394 115.500,344.401 114.400 C 342.048 111.793,340.800 109.310,340.800 107.233 C 340.800 106.177,340.049 105.275,338.764 104.786 C 337.644 104.361,336.282 102.953,335.738 101.658 C 335.194 100.364,333.770 98.535,332.574 97.594 C 331.378 96.653,330.400 95.441,330.400 94.900 C 330.400 94.034,317.353 79.542,314.524 77.266 C 313.932 76.790,311.734 74.870,309.641 73.000 C 307.547 71.130,305.448 69.600,304.975 69.600 C 304.503 69.600,303.347 68.622,302.406 67.426 C 301.465 66.230,299.636 64.806,298.342 64.262 C 297.047 63.718,295.639 62.356,295.214 61.236 C 294.728 59.958,293.822 59.200,292.780 59.200 C 290.606 59.200,286.265 56.937,284.999 55.144 C 284.448 54.365,282.828 53.484,281.399 53.187 C 279.970 52.891,277.482 51.611,275.872 50.344 C 274.262 49.077,271.464 47.708,269.656 47.302 C 266.151 46.514,262.400 44.423,262.400 43.257 C 262.400 42.868,260.510 42.317,258.200 42.033 C 251.021 41.148,249.634 40.726,247.204 38.681 C 245.143 36.947,243.708 36.611,235.774 36.013 C 224.541 35.166,221.168 34.567,217.600 32.786 C 214.363 31.170,199.186 30.247,190.000 31.107 M118.898 187.237 C 121.054 188.057,122.143 188.927,126.607 193.392 C 133.688 200.475,133.113 199.253,133.464 207.973 C 133.991 221.112,133.296 223.359,126.773 229.600 C 126.083 230.260,124.410 231.880,123.054 233.200 L 120.589 235.600 109.071 235.859 L 97.553 236.119 95.255 233.659 C 93.992 232.307,92.607 231.200,92.177 231.200 C 91.747 231.200,89.706 229.148,87.642 226.640 L 83.887 222.079 84.144 210.745 L 84.400 199.411 87.000 196.985 C 88.430 195.650,89.600 194.144,89.600 193.637 C 89.600 193.131,90.665 192.345,91.967 191.892 C 93.269 191.438,94.552 190.381,94.818 189.543 C 95.710 186.733,113.174 185.061,118.898 187.237 M213.075 188.800 C 214.029 189.900,215.817 191.451,217.048 192.247 C 218.279 193.042,219.514 194.287,219.793 195.014 C 220.071 195.740,221.222 197.128,222.350 198.098 C 225.543 200.845,225.549 222.382,222.357 225.076 C 221.233 226.024,219.695 227.790,218.938 229.000 C 218.182 230.210,217.176 231.200,216.703 231.200 C 216.229 231.200,214.833 232.280,213.600 233.600 L 211.358 236.000 200.000 236.000 L 188.642 236.000 186.400 233.600 C 185.167 232.280,183.771 231.200,183.297 231.200 C 182.824 231.200,181.818 230.210,181.062 229.000 C 180.305 227.790,178.767 226.024,177.643 225.076 C 174.451 222.382,174.457 200.845,177.650 198.098 C 178.778 197.128,179.929 195.740,180.207 195.014 C 180.486 194.287,181.723 193.044,182.957 192.251 C 184.191 191.457,185.837 190.020,186.616 189.058 C 189.448 185.557,210.086 185.356,213.075 188.800 M301.754 187.229 C 303.458 187.703,304.910 188.688,305.187 189.558 C 305.450 190.388,306.731 191.438,308.033 191.892 C 309.335 192.345,310.400 193.131,310.400 193.637 C 310.400 194.144,311.570 195.650,313.000 196.985 L 315.600 199.411 315.856 210.745 L 316.113 222.079 312.358 226.640 C 310.294 229.148,308.253 231.200,307.823 231.200 C 307.393 231.200,306.008 232.307,304.745 233.659 L 302.447 236.119 290.929 235.859 L 279.411 235.600 276.946 233.200 C 275.590 231.880,273.917 230.260,273.227 229.600 C 266.704 223.359,266.009 221.112,266.536 207.973 C 266.887 199.253,266.312 200.475,273.393 193.392 C 277.796 188.987,278.955 188.038,280.861 187.276 C 283.464 186.236,298.059 186.203,301.754 187.229 M101.600 380.705 C 101.600 381.485,104.711 384.395,105.045 383.928 C 105.175 383.748,104.453 382.803,103.440 381.829 C 102.428 380.854,101.600 380.349,101.600 380.705 M296.229 382.160 C 295.254 383.172,294.749 384.000,295.105 384.000 C 295.885 384.000,298.795 380.889,298.328 380.555 C 298.148 380.425,297.203 381.147,296.229 382.160 " stroke="none" fill="#ffffff" fill-rule="evenodd"></path></g></svg>